<svg width="38" height="38" viewBox="0 0 38 38" fill="none" xmlns="http://www.w3.org/2000/svg">
<rect width="38" height="38" rx="10" fill="url(#paint0_linear_1016_462)"/>
<path fill-rule="evenodd" clip-rule="evenodd" d="M27.751 28.9395H20.498C20.084 28.9395 19.748 28.6035 19.748 28.1895C19.748 27.7755 20.084 27.4395 20.498 27.4395H27.751C28.165 27.4395 28.501 27.7755 28.501 28.1895C28.501 28.6035 28.165 28.9395 27.751 28.9395" fill="white"/>
<mask id="mask0_1016_462" style="mask-type:luminance" maskUnits="userSpaceOnUse" x="9" y="10" width="18" height="19">
<path fill-rule="evenodd" clip-rule="evenodd" d="M9.00049 10H26.1811V28.9395H9.00049V10Z" fill="white"/>
</mask>
<g mask="url(#mask0_1016_462)">
<path fill-rule="evenodd" clip-rule="evenodd" d="M20.1108 12.0166L10.6958 23.7916C10.5248 24.0056 10.4618 24.2816 10.5248 24.5466L11.2058 27.4316L14.2448 27.3936C14.5338 27.3906 14.8008 27.2616 14.9778 27.0416C18.1948 23.0166 24.3278 15.3426 24.5018 15.1176C24.6658 14.8516 24.7298 14.4756 24.6438 14.1136C24.5558 13.7426 24.3248 13.4276 23.9918 13.2266C23.9208 13.1776 22.2358 11.8696 22.1838 11.8286C21.5498 11.3206 20.6248 11.4086 20.1108 12.0166V12.0166ZM10.6138 28.9396C10.2668 28.9396 9.96476 28.7016 9.88376 28.3626L9.06476 24.8916C8.89576 24.1726 9.06376 23.4306 9.52476 22.8546L18.9448 11.0726C18.9488 11.0686 18.9518 11.0636 18.9558 11.0596C19.9888 9.82464 21.8568 9.64264 23.1168 10.6536C23.1668 10.6926 24.8398 11.9926 24.8398 11.9926C25.4478 12.3546 25.9228 13.0016 26.1028 13.7676C26.2818 14.5256 26.1518 15.3076 25.7348 15.9686C25.7038 16.0176 25.6768 16.0596 16.1488 27.9796C15.6898 28.5516 15.0018 28.8846 14.2628 28.8936L10.6238 28.9396H10.6138Z" fill="white"/>
</g>
<path fill-rule="evenodd" clip-rule="evenodd" d="M23.2234 18.6844C23.0634 18.6844 22.9034 18.6334 22.7664 18.5294L17.3144 14.3414C16.9864 14.0894 16.9244 13.6194 17.1764 13.2894C17.4294 12.9614 17.8994 12.9004 18.2284 13.1524L23.6814 17.3394C24.0094 17.5914 24.0714 18.0624 23.8184 18.3914C23.6714 18.5834 23.4484 18.6844 23.2234 18.6844" fill="white"/>
<defs>
<linearGradient id="paint0_linear_1016_462" x1="-6.43089e-07" y1="10.0755" x2="39.9409" y2="24.4579" gradientUnits="userSpaceOnUse">
<stop stop-color="#8E38A6"/>
<stop offset="1" stop-color="#6746EE"/>
</linearGradient>
</defs>
</svg>
