<svg width="705" height="249" viewBox="0 0 705 249" fill="none" xmlns="http://www.w3.org/2000/svg">
<path d="M165.23 9.2998H102.34L68.8599 55.8798H132.77L165.23 9.2998Z" fill="#E05A00"/>
<path d="M169.73 208.05H110.52V244.06H169.73V208.05Z" fill="#E05A00"/>
<path d="M348.4 54.7C351.206 54.6857 353.999 55.0834 356.69 55.88H430.36C414.45 23.01 384.68 5 348.36 5C311.88 5 282.03 23 266.1 55.88H340.03C342.749 55.0858 345.568 54.6883 348.4 54.7V54.7Z" fill="#E05A00"/>
<path d="M339.4 248.35C371.58 248.35 398.64 234.18 415.4 208.05H263.03C279.91 234.18 307.03 248.35 339.4 248.35Z" fill="#E05A00"/>
<path d="M651.52 9.2998H588.63L555.15 55.8798H619.06L651.52 9.2998Z" fill="#E05A00"/>
<path d="M656.02 208.05H596.81V244.06H656.02V208.05Z" fill="#E05A00"/>
<path d="M0 202.95H113.52V208.05H172.73V202.95H204.64V173.72H0V202.95Z" fill="#E05A00"/>
<path d="M172.73 134.78V98.2699H115.36V134.78H71.79L126.77 55.8799H62.86L0 143.37V153.72H204.64V134.78H172.73Z" fill="#E05A00"/>
<path d="M308.65 116.68C308.65 78.3199 318.86 60.3899 333.99 55.8799H260.14C252.14 72.4899 247.6 92.8799 247.6 116.68C247.519 129.134 248.916 141.554 251.76 153.68H313.33C310.33 144.41 308.65 132.22 308.65 116.68Z" fill="#E05A00"/>
<path d="M342.4 198.65C329.53 198.65 319.04 191.4 313.33 173.71H251.76C254.558 185.876 259.382 197.484 266.03 208.05H418.4C425.055 197.486 429.886 185.877 432.69 173.71H371.14C365.49 191.4 355.03 198.65 342.4 198.65Z" fill="#E05A00"/>
<path d="M424.36 55.8799H350.69C365.63 60.3899 375.84 78.3199 375.84 116.68C375.84 132.22 374.17 144.41 371.18 153.68H432.73C435.578 141.555 436.978 129.135 436.9 116.68C436.9 92.8799 432.4 72.4799 424.36 55.8799Z" fill="#E05A00"/>
<path d="M486.29 173.72V202.95H599.81V208.05H659.02V202.95H690.93V173.72H486.29Z" fill="#E05A00"/>
<path d="M690.93 134.78H659.02V98.2699H601.65V134.78H558.09L613.06 55.8799H549.15L486.29 143.37V153.72H690.93V134.78Z" fill="#E05A00"/>
<path d="M168.23 6.2998H105.34L71.8599 52.8798H135.77L168.23 6.2998Z" fill="#E2A100"/>
<path d="M172.73 205.05H113.52V241.06H172.73V205.05Z" fill="#E2A100"/>
<path d="M351.4 51.7C354.206 51.6857 356.999 52.0834 359.69 52.88H433.36C417.45 20.01 387.68 2 351.36 2C314.88 2 285.03 20 269.1 52.88H343.03C345.749 52.0858 348.568 51.6883 351.4 51.7V51.7Z" fill="#E2A100"/>
<path d="M342.4 245.35C374.58 245.35 401.64 231.18 418.4 205.05H266.03C282.91 231.18 310.03 245.35 342.4 245.35Z" fill="#E2A100"/>
<path d="M654.52 6.2998H591.63L558.15 52.8798H622.06L654.52 6.2998Z" fill="#E2A100"/>
<path d="M659.02 205.05H599.81V241.06H659.02V205.05Z" fill="#E2A100"/>
<path d="M3 199.95H116.52V205.05H175.73V199.95H207.64V170.72H3V199.95Z" fill="#E2A100"/>
<path d="M175.73 131.78V95.2699H118.36V131.78H74.79L129.77 52.8799H65.86L3 140.37V150.72H207.64V131.78H175.73Z" fill="#E2A100"/>
<path d="M311.65 113.68C311.65 75.3199 321.86 57.3899 336.99 52.8799H263.14C255.14 69.4899 250.6 89.8799 250.6 113.68C250.519 126.134 251.916 138.554 254.76 150.68H316.33C313.33 141.41 311.65 129.22 311.65 113.68Z" fill="#E2A100"/>
<path d="M345.4 195.65C332.53 195.65 322.04 188.4 316.33 170.71H254.76C257.558 182.876 262.382 194.484 269.03 205.05H421.4C428.055 194.486 432.886 182.877 435.69 170.71H374.14C368.49 188.4 358.03 195.65 345.4 195.65Z" fill="#E2A100"/>
<path d="M427.36 52.8799H353.69C368.63 57.3899 378.84 75.3199 378.84 113.68C378.84 129.22 377.17 141.41 374.18 150.68H435.73C438.578 138.555 439.978 126.135 439.9 113.68C439.9 89.8799 435.4 69.4799 427.36 52.8799Z" fill="#E2A100"/>
<path d="M489.29 170.72V199.95H602.81V205.05H662.02V199.95H693.93V170.72H489.29Z" fill="#E2A100"/>
<path d="M693.93 131.78H662.02V95.2699H604.65V131.78H561.09L616.06 52.8799H552.15L489.29 140.37V150.72H693.93V131.78Z" fill="#E2A100"/>
<path d="M179.23 4.2998H116.34L82.8599 50.8798H146.77L179.23 4.2998Z" fill="#00A589"/>
<path d="M183.73 203.05H124.52V239.06H183.73V203.05Z" fill="#00A589"/>
<path d="M362.4 49.7C365.206 49.6857 367.999 50.0834 370.69 50.88H444.36C428.45 18.01 398.68 0 362.36 0C325.88 0 296.03 18 280.1 50.88H354.03C356.749 50.0858 359.568 49.6883 362.4 49.7V49.7Z" fill="#00A589"/>
<path d="M353.4 243.35C385.58 243.35 412.64 229.18 429.4 203.05H277.03C293.91 229.18 321.03 243.35 353.4 243.35Z" fill="#00A589"/>
<path d="M665.52 4.2998H602.63L569.15 50.8798H633.06L665.52 4.2998Z" fill="#00A589"/>
<path d="M670.02 203.05H610.81V239.06H670.02V203.05Z" fill="#00A589"/>
<path d="M14 197.95H127.52V203.05H186.73V197.95H218.64V168.72H14V197.95Z" fill="#00A589"/>
<path d="M186.73 129.78V93.2699H129.36V129.78H85.79L140.77 50.8799H76.86L14 138.37V148.72H218.64V129.78H186.73Z" fill="#00A589"/>
<path d="M322.65 111.68C322.65 73.3199 332.86 55.3899 347.99 50.8799H274.14C266.14 67.4899 261.6 87.8799 261.6 111.68C261.519 124.134 262.916 136.554 265.76 148.68H327.33C324.33 139.41 322.65 127.22 322.65 111.68Z" fill="#00A589"/>
<path d="M356.4 193.65C343.53 193.65 333.04 186.4 327.33 168.71H265.76C268.558 180.876 273.382 192.484 280.03 203.05H432.4C439.055 192.486 443.886 180.877 446.69 168.71H385.14C379.49 186.4 369.03 193.65 356.4 193.65Z" fill="#00A589"/>
<path d="M438.36 50.8799H364.69C379.63 55.3899 389.84 73.3199 389.84 111.68C389.84 127.22 388.17 139.41 385.18 148.68H446.73C449.578 136.555 450.978 124.135 450.9 111.68C450.9 87.8799 446.4 67.4799 438.36 50.8799Z" fill="#00A589"/>
<path d="M500.29 168.72V197.95H613.81V203.05H673.02V197.95H704.93V168.72H500.29Z" fill="#00A589"/>
<path d="M704.93 129.78H673.02V93.2699H615.65V129.78H572.09L627.06 50.8799H563.15L500.29 138.37V148.72H704.93V129.78Z" fill="#00A589"/>
<path d="M175.23 6.2998H112.34L78.8599 52.8798H142.77L175.23 6.2998Z" fill="#52FFA4"/>
<path d="M179.73 205.05H120.52V241.06H179.73V205.05Z" fill="#52FFA4"/>
<path d="M358.4 51.7C361.206 51.6857 363.999 52.0834 366.69 52.88H440.36C424.45 20.01 394.68 2 358.36 2C321.88 2 292.03 20 276.1 52.88H350.03C352.749 52.0858 355.568 51.6883 358.4 51.7V51.7Z" fill="#52FFA4"/>
<path d="M349.4 245.35C381.58 245.35 408.64 231.18 425.4 205.05H273.03C289.91 231.18 317.03 245.35 349.4 245.35Z" fill="#52FFA4"/>
<path d="M661.52 6.2998H598.63L565.15 52.8798H629.06L661.52 6.2998Z" fill="#52FFA4"/>
<path d="M666.02 205.05H606.81V241.06H666.02V205.05Z" fill="#52FFA4"/>
<path d="M10 199.95H123.52V205.05H182.73V199.95H214.64V170.72H10V199.95Z" fill="#52FFA4"/>
<path d="M182.73 131.78V95.2699H125.36V131.78H81.79L136.77 52.8799H72.86L10 140.37V150.72H214.64V131.78H182.73Z" fill="#52FFA4"/>
<path d="M318.65 113.68C318.65 75.3199 328.86 57.3899 343.99 52.8799H270.14C262.14 69.4899 257.6 89.8799 257.6 113.68C257.519 126.134 258.916 138.554 261.76 150.68H323.33C320.33 141.41 318.65 129.22 318.65 113.68Z" fill="#52FFA4"/>
<path d="M352.4 195.65C339.53 195.65 329.04 188.4 323.33 170.71H261.76C264.558 182.876 269.382 194.484 276.03 205.05H428.4C435.055 194.486 439.886 182.877 442.69 170.71H381.14C375.49 188.4 365.03 195.65 352.4 195.65Z" fill="#52FFA4"/>
<path d="M434.36 52.8799H360.69C375.63 57.3899 385.84 75.3199 385.84 113.68C385.84 129.22 384.17 141.41 381.18 150.68H442.73C445.578 138.555 446.978 126.135 446.9 113.68C446.9 89.8799 442.4 69.4799 434.36 52.8799Z" fill="#52FFA4"/>
<path d="M496.29 170.72V199.95H609.81V205.05H669.02V199.95H700.93V170.72H496.29Z" fill="#52FFA4"/>
<path d="M700.93 131.78H669.02V95.2699H611.65V131.78H568.09L623.06 52.8799H559.15L496.29 140.37V150.72H700.93V131.78Z" fill="#52FFA4"/>
<path d="M171.23 6.2998H108.34L74.8599 52.8798H138.77L171.23 6.2998Z" fill="url(#paint0_linear_1030_446)"/>
<path d="M175.73 205.05H116.52V241.06H175.73V205.05Z" fill="url(#paint1_linear_1030_446)"/>
<path d="M354.4 51.7C357.206 51.6857 359.999 52.0834 362.69 52.88H436.36C420.45 20.01 390.68 2 354.36 2C317.88 2 288.03 20 272.1 52.88H346.03C348.749 52.0858 351.568 51.6883 354.4 51.7V51.7Z" fill="url(#paint2_linear_1030_446)"/>
<path d="M345.4 245.35C377.58 245.35 404.64 231.18 421.4 205.05H269.03C285.91 231.18 313.03 245.35 345.4 245.35Z" fill="url(#paint3_linear_1030_446)"/>
<path d="M657.52 6.2998H594.63L561.15 52.8798H625.06L657.52 6.2998Z" fill="url(#paint4_linear_1030_446)"/>
<path d="M662.02 205.05H602.81V241.06H662.02V205.05Z" fill="url(#paint5_linear_1030_446)"/>
<path d="M6 199.95H119.52V205.05H178.73V199.95H210.64V170.72H6V199.95Z" fill="url(#paint6_linear_1030_446)"/>
<path d="M178.73 131.78V95.2699H121.36V131.78H77.79L132.77 52.8799H68.86L6 140.37V150.72H210.64V131.78H178.73Z" fill="url(#paint7_linear_1030_446)"/>
<path d="M314.65 113.68C314.65 75.3199 324.86 57.3899 339.99 52.8799H266.14C258.14 69.4899 253.6 89.8799 253.6 113.68C253.519 126.134 254.916 138.554 257.76 150.68H319.33C316.33 141.41 314.65 129.22 314.65 113.68Z" fill="url(#paint8_linear_1030_446)"/>
<path d="M348.4 195.65C335.53 195.65 325.04 188.4 319.33 170.71H257.76C260.558 182.876 265.382 194.484 272.03 205.05H424.4C431.055 194.486 435.886 182.877 438.69 170.71H377.14C371.49 188.4 361.03 195.65 348.4 195.65Z" fill="url(#paint9_linear_1030_446)"/>
<path d="M430.36 52.8799H356.69C371.63 57.3899 381.84 75.3199 381.84 113.68C381.84 129.22 380.17 141.41 377.18 150.68H438.73C441.578 138.555 442.978 126.135 442.9 113.68C442.9 89.8799 438.4 69.4799 430.36 52.8799Z" fill="url(#paint10_linear_1030_446)"/>
<path d="M492.29 170.72V199.95H605.81V205.05H665.02V199.95H696.93V170.72H492.29Z" fill="url(#paint11_linear_1030_446)"/>
<path d="M696.93 131.78H665.02V95.2699H607.65V131.78H564.09L619.06 52.8799H555.15L492.29 140.37V150.72H696.93V131.78Z" fill="url(#paint12_linear_1030_446)"/>
<defs>
<linearGradient id="paint0_linear_1030_446" x1="74.8599" y1="18.6503" x2="148.445" y2="73.4709" gradientUnits="userSpaceOnUse">
<stop stop-color="#8E38A6"/>
<stop offset="1" stop-color="#6746EE"/>
</linearGradient>
<linearGradient id="paint1_linear_1030_446" x1="116.52" y1="214.598" x2="168.575" y2="245.419" gradientUnits="userSpaceOnUse">
<stop stop-color="#8E38A6"/>
<stop offset="1" stop-color="#6746EE"/>
</linearGradient>
<linearGradient id="paint2_linear_1030_446" x1="272.1" y1="15.4906" x2="355.044" y2="111.914" gradientUnits="userSpaceOnUse">
<stop stop-color="#8E38A6"/>
<stop offset="1" stop-color="#6746EE"/>
</linearGradient>
<linearGradient id="paint3_linear_1030_446" x1="269.03" y1="215.735" x2="332.43" y2="302.053" gradientUnits="userSpaceOnUse">
<stop stop-color="#8E38A6"/>
<stop offset="1" stop-color="#6746EE"/>
</linearGradient>
<linearGradient id="paint4_linear_1030_446" x1="561.15" y1="18.6503" x2="634.735" y2="73.4709" gradientUnits="userSpaceOnUse">
<stop stop-color="#8E38A6"/>
<stop offset="1" stop-color="#6746EE"/>
</linearGradient>
<linearGradient id="paint5_linear_1030_446" x1="602.81" y1="214.598" x2="654.865" y2="245.419" gradientUnits="userSpaceOnUse">
<stop stop-color="#8E38A6"/>
<stop offset="1" stop-color="#6746EE"/>
</linearGradient>
<linearGradient id="paint6_linear_1030_446" x1="6" y1="179.823" x2="49.3322" y2="272.835" gradientUnits="userSpaceOnUse">
<stop stop-color="#8E38A6"/>
<stop offset="1" stop-color="#6746EE"/>
</linearGradient>
<linearGradient id="paint7_linear_1030_446" x1="6" y1="78.8217" x2="161.037" y2="195.589" gradientUnits="userSpaceOnUse">
<stop stop-color="#8E38A6"/>
<stop offset="1" stop-color="#6746EE"/>
</linearGradient>
<linearGradient id="paint8_linear_1030_446" x1="253.597" y1="78.8111" x2="346.751" y2="108.443" gradientUnits="userSpaceOnUse">
<stop stop-color="#8E38A6"/>
<stop offset="1" stop-color="#6746EE"/>
</linearGradient>
<linearGradient id="paint9_linear_1030_446" x1="257.76" y1="179.815" x2="304.467" y2="268.429" gradientUnits="userSpaceOnUse">
<stop stop-color="#8E38A6"/>
<stop offset="1" stop-color="#6746EE"/>
</linearGradient>
<linearGradient id="paint10_linear_1030_446" x1="356.69" y1="78.8111" x2="449.686" y2="108.331" gradientUnits="userSpaceOnUse">
<stop stop-color="#8E38A6"/>
<stop offset="1" stop-color="#6746EE"/>
</linearGradient>
<linearGradient id="paint11_linear_1030_446" x1="492.29" y1="179.823" x2="535.622" y2="272.835" gradientUnits="userSpaceOnUse">
<stop stop-color="#8E38A6"/>
<stop offset="1" stop-color="#6746EE"/>
</linearGradient>
<linearGradient id="paint12_linear_1030_446" x1="492.29" y1="78.8217" x2="647.327" y2="195.589" gradientUnits="userSpaceOnUse">
<stop stop-color="#8E38A6"/>
<stop offset="1" stop-color="#6746EE"/>
</linearGradient>
</defs>
</svg>
