<svg width="38" height="38" viewBox="0 0 38 38" fill="none" xmlns="http://www.w3.org/2000/svg">
<rect width="38" height="38" rx="10" fill="url(#paint0_linear_1016_461)"/>
<path fill-rule="evenodd" clip-rule="evenodd" d="M16.0031 22.9213C15.7631 22.9213 15.5231 22.8301 15.3406 22.6463C14.9744 22.2801 14.9744 21.6876 15.3406 21.3213L21.3306 15.3313C21.6969 14.9651 22.2894 14.9651 22.6556 15.3313C23.0219 15.6976 23.0219 16.2901 22.6556 16.6563L16.6656 22.6463C16.4831 22.8301 16.2431 22.9213 16.0031 22.9213" fill="white"/>
<path fill-rule="evenodd" clip-rule="evenodd" d="M21.9957 22.9246C21.7557 22.9246 21.5157 22.8334 21.3332 22.6496L15.3382 16.6534C14.9719 16.2871 14.9719 15.6946 15.3382 15.3284C15.7057 14.9621 16.2982 14.9621 16.6632 15.3284L22.6582 21.3246C23.0244 21.6909 23.0244 22.2834 22.6582 22.6496C22.4757 22.8334 22.2344 22.9246 21.9957 22.9246" fill="white"/>
<path fill-rule="evenodd" clip-rule="evenodd" d="M13.5812 8.375C10.4187 8.375 8.375 10.5412 8.375 13.895V24.105C8.375 27.4587 10.4187 29.625 13.5812 29.625H24.4163C27.58 29.625 29.625 27.4587 29.625 24.105V13.895C29.625 10.5412 27.58 8.375 24.4175 8.375H13.5812ZM24.4163 31.5H13.5812C9.345 31.5 6.5 28.5275 6.5 24.105V13.895C6.5 9.4725 9.345 6.5 13.5812 6.5H24.4175C28.6537 6.5 31.5 9.4725 31.5 13.895V24.105C31.5 28.5275 28.6538 31.5 24.4163 31.5V31.5Z" fill="white"/>
<defs>
<linearGradient id="paint0_linear_1016_461" x1="0" y1="0" x2="38" y2="38" gradientUnits="userSpaceOnUse">
<stop stop-color="#E52D27"/>
<stop offset="1" stop-color="#B31217"/>
</linearGradient>
</defs>
</svg>
