<svg width="38" height="38" viewBox="0 0 38 38" fill="none" xmlns="http://www.w3.org/2000/svg">
<rect width="38" height="38" rx="10" fill="white"/>
<path d="M24.646 11.7617C25.089 11.7617 25.4551 12.0909 25.513 12.518L25.521 12.6367V28.5241C25.521 29.0074 25.1292 29.3991 24.646 29.3991C24.203 29.3991 23.8369 29.0699 23.779 28.6429L23.771 28.5241V12.6367C23.771 12.1535 24.1627 11.7617 24.646 11.7617Z" fill="url(#paint0_linear_1016_472)"/>
<path d="M28.7833 23.1288C29.1243 22.7863 29.6783 22.785 30.0208 23.1259C30.3321 23.4359 30.3615 23.9219 30.1081 24.265L30.0236 24.3634L25.2662 29.1428C24.9553 29.4552 24.4673 29.4836 24.1242 29.228L24.0259 29.1428L19.2685 24.3634C18.9276 24.0209 18.9289 23.4669 19.2714 23.1259C19.5827 22.816 20.0689 22.7889 20.4109 23.0439L20.5088 23.1288L24.6456 27.2845L28.7833 23.1288Z" fill="url(#paint1_linear_1016_472)"/>
<path d="M13.063 8.59668C13.506 8.59668 13.8721 8.92586 13.93 9.35295L13.938 9.47168V25.3591C13.938 25.8423 13.5462 26.2341 13.063 26.2341C12.62 26.2341 12.2539 25.9049 12.196 25.4778L12.188 25.3591V9.47168C12.188 8.98843 12.5797 8.59668 13.063 8.59668Z" fill="url(#paint2_linear_1016_472)"/>
<path d="M12.4429 8.85342C12.7539 8.54104 13.2418 8.51264 13.5849 8.76822L13.6832 8.85342L18.4406 13.6329C18.7815 13.9754 18.7803 14.5294 18.4378 14.8703C18.1264 15.1802 17.6402 15.2073 17.2983 14.9524L17.2003 14.8674L13.0628 10.7105L8.92581 14.8674C8.61588 15.1788 8.12984 15.2082 7.78671 14.9548L7.68838 14.8703C7.37702 14.5604 7.34765 14.0743 7.60102 13.7312L7.68552 13.6329L12.4429 8.85342Z" fill="url(#paint3_linear_1016_472)"/>
<defs>
<linearGradient id="paint0_linear_1016_472" x1="23.771" y1="16.4382" x2="25.8462" y2="16.5123" gradientUnits="userSpaceOnUse">
<stop stop-color="#8E38A6"/>
<stop offset="1" stop-color="#6746EE"/>
</linearGradient>
<linearGradient id="paint1_linear_1016_472" x1="19.0137" y1="24.6023" x2="28.6645" y2="30.5978" gradientUnits="userSpaceOnUse">
<stop stop-color="#8E38A6"/>
<stop offset="1" stop-color="#6746EE"/>
</linearGradient>
<linearGradient id="paint2_linear_1016_472" x1="12.188" y1="13.2732" x2="14.2632" y2="13.3473" gradientUnits="userSpaceOnUse">
<stop stop-color="#8E38A6"/>
<stop offset="1" stop-color="#6746EE"/>
</linearGradient>
<linearGradient id="paint3_linear_1016_472" x1="7.43066" y1="10.327" x2="17.0815" y2="16.3224" gradientUnits="userSpaceOnUse">
<stop stop-color="#8E38A6"/>
<stop offset="1" stop-color="#6746EE"/>
</linearGradient>
</defs>
</svg>
